<svg version="1.1" id="Layer_1" xmlns="http://www.w3.org/2000/svg" xmlns:xlink="http://www.w3.org/1999/xlink" x="0px" y="0px"
	 width="100%" viewBox="0 0 192 192" enable-background="new 0 0 192 192" xml:space="preserve">
<path fill="#FEFEFE" opacity="1.000000" stroke="none" 
	d="
M90.656036,5.237201 
	C97.840179,5.630006 104.824989,5.104631 111.561981,6.160488 
	C124.262100,8.150915 136.407898,12.444814 146.798279,20.121593 
	C154.624222,25.903687 162.450119,32.147396 168.660477,39.542381 
	C177.171326,49.676685 183.269196,61.783333 186.030670,74.734344 
	C189.849182,92.642601 189.059082,110.422516 182.538376,128.114258 
	C175.414185,147.443405 162.321930,161.443893 146.224594,173.017242 
	C135.548706,180.692780 123.170364,184.677811 110.118614,186.836411 
	C93.708130,189.550491 78.025864,186.970810 62.801311,181.135284 
	C47.257015,175.177200 35.647259,163.941895 24.632759,151.845505 
	C17.420797,143.925156 12.839903,134.414505 9.780699,124.751038 
	C5.033126,109.754280 3.585046,93.936043 7.290676,78.259956 
	C10.438361,64.944183 15.023205,52.213318 24.574100,41.849205 
	C27.041233,39.172009 28.859980,35.895573 31.337927,33.230373 
	C42.052540,21.706089 55.113064,13.722441 70.074387,9.129399 
	C76.632355,7.116142 83.576202,6.359867 90.656036,5.237201 
M84.040337,150.852859 
	C81.121689,160.833969 83.985672,170.447937 91.490746,175.862869 
	C99.457451,181.610886 109.633827,181.724976 117.608017,176.155655 
	C125.079803,170.937164 128.414581,161.434647 125.978767,152.302872 
	C123.718193,143.828064 115.882973,137.215256 106.941566,136.235764 
	C97.539848,135.205841 89.116257,140.361404 84.040337,150.852859 
z"/>
<path fill="#060606" opacity="1.000000" stroke="none" 
	d="
M84.170029,150.473175 
	C89.116257,140.361404 97.539848,135.205841 106.941566,136.235764 
	C115.882973,137.215256 123.718193,143.828064 125.978767,152.302872 
	C128.414581,161.434647 125.079803,170.937164 117.608017,176.155655 
	C109.633827,181.724976 99.457451,181.610886 91.490746,175.862869 
	C83.985672,170.447937 81.121689,160.833969 84.170029,150.473175 
M108.997452,165.415588 
	C110.463623,170.541504 113.419243,172.782516 117.341370,171.587357 
	C120.572830,170.602661 122.335892,168.391693 122.173798,164.915329 
	C122.012375,161.453568 120.134979,159.236740 116.763885,158.763245 
	C112.395714,158.149719 109.864357,160.393311 108.997452,165.415588 
z"/>
<path fill="#EEEEEE" opacity="1.000000" stroke="none" 
	d="
M108.992966,165.020752 
	C109.864357,160.393311 112.395714,158.149719 116.763885,158.763245 
	C120.134979,159.236740 122.012375,161.453568 122.173798,164.915329 
	C122.335892,168.391693 120.572830,170.602661 117.341370,171.587357 
	C113.419243,172.782516 110.463623,170.541504 108.992966,165.020752 
z"/>
</svg>